<?xml version="1.0" encoding="UTF-8"?>
<svg version="1.1" xmlns="http://www.w3.org/2000/svg" width="40" height="40">
<path d="M0 0 C2.475 0.99 2.475 0.99 5 2 C4.67 2.99 4.34 3.98 4 5 C3.67 5 3.34 5 3 5 C3 5.99 3 6.98 3 8 C4.32 8 5.64 8 7 8 C7.12375 7.360625 7.2475 6.72125 7.375 6.0625 C7.684375 5.0415625 7.684375 5.0415625 8 4 C8.66 3.67 9.32 3.34 10 3 C10.33 2.34 10.66 1.68 11 1 C12.32 2.32 13.64 3.64 15 5 C14.67 5.66 14.34 6.32 14 7 C13.01 6.34 12.02 5.68 11 5 C11.26676204 6.98491642 11.26676204 6.98491642 12 9 C12.99 9.33 13.98 9.66 15 10 C15.33 9.01 15.66 8.02 16 7 C19.875 7.875 19.875 7.875 21 9 C20.82364548 11.69082872 20.38164079 14.32851446 20 17 C18.35 16.67 16.7 16.34 15 16 C15.33 16.99 15.66 17.98 16 19 C16.66 19 17.32 19 18 19 C17.67 19.99 17.34 20.98 17 22 C14.9375 22.6875 14.9375 22.6875 13 23 C12.34 22.01 11.68 21.02 11 20 C9.68 20 8.36 20 7 20 C7.33 20.33 7.66 20.66 8 21 C8.66 21 9.32 21 10 21 C10 21.66 10 22.32 10 23 C9.34 23 8.68 23 8 23 C8 23.66 8 24.32 8 25 C5.35261084 26.4606285 4.10551666 27 1 27 C1 26.34 1 25.68 1 25 C1.66 24.67 2.32 24.34 3 24 C2.67 23.01 2.34 22.02 2 21 C1.443125 21.33 0.88625 21.66 0.3125 22 C-2.30284522 23.1309601 -4.1806646 23.15662974 -7 23 C-7 23.66 -7 24.32 -7 25 C-7.66 25 -8.32 25 -9 25 C-9.33 22.36 -9.66 19.72 -10 17 C-10.99 17 -11.98 17 -13 17 C-13 16.34 -13 15.68 -13 15 C-12.01 14.34 -11.02 13.68 -10 13 C-10.66 12.01 -11.32 11.02 -12 10 C-12.4140625 7.73828125 -12.4140625 7.73828125 -12.625 5.3125 C-12.69976562 4.50425781 -12.77453125 3.69601563 -12.8515625 2.86328125 C-12.90054687 2.24839844 -12.94953125 1.63351563 -13 1 C-11 2 -11 2 -10 4 C-6.05272412 4.17942163 -3.4019487 4.09350689 0 2 C0 1.34 0 0.68 0 0 Z M-3 5 C-2.34 5.66 -1.68 6.32 -1 7 C-1 6.34 -1 5.68 -1 5 C-1.66 5 -2.32 5 -3 5 Z M9 6 C8.67 6.99 8.34 7.98 8 9 C8.66 9 9.32 9 10 9 C9.67 8.01 9.34 7.02 9 6 Z M-8 7 C-8 7.66 -8 8.32 -8 9 C-8.99 9.495 -8.99 9.495 -10 10 C-8.35 9.67 -6.7 9.34 -5 9 C-5.99 8.34 -6.98 7.68 -8 7 Z M16 9 C16.33 9.99 16.66 10.98 17 12 C17.99 12 18.98 12 20 12 C20 11.34 20 10.68 20 10 C18.68 9.67 17.36 9.34 16 9 Z M-3 10 C-2 12 -2 12 -2 12 Z M-9 17 C-8.34 18.32 -7.68 19.64 -7 21 C-7 19.68 -7 18.36 -7 17 C-7.66 17 -8.32 17 -9 17 Z M-4 17 C-3.67 17.66 -3.34 18.32 -3 19 C-2.67 18.34 -2.34 17.68 -2 17 C-2.66 17 -3.32 17 -4 17 Z M12 17 C12.99 18.485 12.99 18.485 14 20 C14 19.01 14 18.02 14 17 C13.34 17 12.68 17 12 17 Z M4 20 C5 22 5 22 5 22 Z " fill="#33555D" transform="translate(16,4)"/>
<path d="M0 0 C1.65 1.32 3.3 2.64 5 4 C4.67 4.66 4.34 5.32 4 6 C3.01 5.34 2.02 4.68 1 4 C1.26676204 5.98491642 1.26676204 5.98491642 2 8 C2.99 8.33 3.98 8.66 5 9 C5.33 8.01 5.66 7.02 6 6 C9.875 6.875 9.875 6.875 11 8 C10.82364548 10.69082872 10.38164079 13.32851446 10 16 C7.525 15.505 7.525 15.505 5 15 C5.33 15.99 5.66 16.98 6 18 C6.66 18 7.32 18 8 18 C7.67 18.99 7.34 19.98 7 21 C4.9375 21.6875 4.9375 21.6875 3 22 C2.34 21.01 1.68 20.02 1 19 C-0.32 19 -1.64 19 -3 19 C-2.67 19.33 -2.34 19.66 -2 20 C-1.34 20 -0.68 20 0 20 C0 20.66 0 21.32 0 22 C-0.66 22 -1.32 22 -2 22 C-2 22.66 -2 23.32 -2 24 C-4.64738916 25.4606285 -5.89448334 26 -9 26 C-9 25.34 -9 24.68 -9 24 C-8.34 23.67 -7.68 23.34 -7 23 C-6.53476937 21.10466658 -6.53476937 21.10466658 -6.375 18.9375 C-6.25125 17.638125 -6.1275 16.33875 -6 15 C-6.66 14.67 -7.32 14.34 -8 14 C-8 13.34 -8 12.68 -8 12 C-7.01 11.67 -6.02 11.34 -5 11 C-4.67 10.34 -4.34 9.68 -4 9 C-4.99 8.67 -5.98 8.34 -7 8 C-6.01 7.67 -5.02 7.34 -4 7 C-3.30062468 5.68352881 -2.63270867 4.34977849 -2 3 C-1.34 2.67 -0.68 2.34 0 2 C0 1.34 0 0.68 0 0 Z M-1 5 C-1.33 5.99 -1.66 6.98 -2 8 C-1.34 8 -0.68 8 0 8 C-0.33 7.01 -0.66 6.02 -1 5 Z M6 8 C6.33 8.99 6.66 9.98 7 11 C7.99 11 8.98 11 10 11 C10 10.34 10 9.68 10 9 C8.68 8.67 7.36 8.34 6 8 Z M2 16 C2.99 17.485 2.99 17.485 4 19 C4 18.01 4 17.02 4 16 C3.34 16 2.68 16 2 16 Z " fill="#41A0B9" transform="translate(26,5)"/>
<path d="M0 0 C0.66 0 1.32 0 2 0 C2.33 0.99 2.66 1.98 3 3 C5.01508358 3.73323796 5.01508358 3.73323796 7 4 C6.67 5.32 6.34 6.64 6 8 C5.01 8 4.02 8 3 8 C3 8.66 3 9.32 3 10 C3.99 10.33 4.98 10.66 6 11 C6 12.32 6 13.64 6 15 C-0.4 18.07692308 -0.4 18.07692308 -3.4375 17.6875 C-3.953125 17.460625 -4.46875 17.23375 -5 17 C-2.69 16.34 -0.38 15.68 2 15 C-0.62113708 15 -2.50935112 15.31292445 -5 16 C-4.01 15.01 -3.02 14.02 -2 13 C-2.66 12.01 -3.32 11.02 -4 10 C-4 9 -4 8 -4 7 C-3.01 7 -2.02 7 -1 7 C-1 6.34 -1 5.68 -1 5 C-1.66 5 -2.32 5 -3 5 C-1.125 1.125 -1.125 1.125 0 0 Z " fill="#151718" transform="translate(15,9)"/>
<path d="M0 0 C2.31 0.33 4.62 0.66 7 1 C7 2.65 7 4.3 7 6 C3.91190305 7.76462683 2.76687864 8 -1 8 C-0.67 9.32 -0.34 10.64 0 12 C0.99 11.67 1.98 11.34 3 11 C3 11.66 3 12.32 3 13 C2.34 13 1.68 13 1 13 C1 13.66 1 14.32 1 15 C-1.64738916 16.4606285 -2.89448334 17 -6 17 C-6 16.34 -6 15.68 -6 15 C-5.34 14.67 -4.68 14.34 -4 14 C-3.53476937 12.10466658 -3.53476937 12.10466658 -3.375 9.9375 C-3.25125 8.638125 -3.1275 7.33875 -3 6 C-3.66 5.67 -4.32 5.34 -5 5 C-5 4.34 -5 3.68 -5 3 C-3.68 3 -2.36 3 -1 3 C-1 3.66 -1 4.32 -1 5 C-0.34 5 0.32 5 1 5 C0.67 3.35 0.34 1.7 0 0 Z " fill="#76CDE4" transform="translate(23,14)"/>
<path d="M0 0 C2.475 0.99 2.475 0.99 5 2 C4.67 2.99 4.34 3.98 4 5 C3.67 5 3.34 5 3 5 C3 5.99 3 6.98 3 8 C2.34 8 1.68 8 1 8 C0.34 7.01 -0.32 6.02 -1 5 C-1.66 5 -2.32 5 -3 5 C-3 7.31 -3 9.62 -3 12 C-6 11 -6 11 -7.0625 9.125 C-7.371875 8.42375 -7.68125 7.7225 -8 7 C-8.66 6.01 -9.32 5.02 -10 4 C-9.0925 4.04125 -8.185 4.0825 -7.25 4.125 C-4.1217954 4.00468444 -2.61385994 3.6085292 0 2 C0 1.34 0 0.68 0 0 Z " fill="#369EBA" transform="translate(16,4)"/>
<path d="M0 0 C0.66 0 1.32 0 2 0 C2.33 0.99 2.66 1.98 3 3 C5.01508358 3.73323796 5.01508358 3.73323796 7 4 C7 4.99 7 5.98 7 7 C3.37 7.66 -0.26 8.32 -4 9 C-4 8.34 -4 7.68 -4 7 C-3.01 7 -2.02 7 -1 7 C-1 6.34 -1 5.68 -1 5 C-1.66 5 -2.32 5 -3 5 C-1.125 1.125 -1.125 1.125 0 0 Z " fill="#212425" transform="translate(15,9)"/>
<path d="M0 0 C1.32 0.33 2.64 0.66 4 1 C3.34 2.32 2.68 3.64 2 5 C1.34 5 0.68 5 0 5 C0.33 5.99 0.66 6.98 1 8 C1.66 8 2.32 8 3 8 C2.67 8.99 2.34 9.98 2 11 C-0.0625 11.6875 -0.0625 11.6875 -2 12 C-2.66 11.01 -3.32 10.02 -4 9 C-6.58380177 8.74969023 -6.58380177 8.74969023 -9 9 C-9 8.34 -9 7.68 -9 7 C-5.7 5.68 -2.4 4.36 1 3 C0.67 2.01 0.34 1.02 0 0 Z M-3 6 C-2.01 7.485 -2.01 7.485 -1 9 C-1 8.01 -1 7.02 -1 6 C-1.66 6 -2.32 6 -3 6 Z " fill="#2B6F81" transform="translate(31,15)"/>
<path d="M0 0 C2.31 0.33 4.62 0.66 7 1 C7 2.65 7 4.3 7 6 C4.64561267 7.42944945 3.51967567 8.08661261 0.75 7.625 C0.1725 7.41875 -0.405 7.2125 -1 7 C-0.67 4.69 -0.34 2.38 0 0 Z " fill="#9AD2E3" transform="translate(23,14)"/>
<path d="M0 0 C1.5 1.375 1.5 1.375 3 3 C3 3.66 3 4.32 3 5 C2.34 5 1.68 5 1 5 C1 5.66 1 6.32 1 7 C3.31 6.01 5.62 5.02 8 4 C8 4.66 8 5.32 8 6 C6.2984375 6.680625 6.2984375 6.680625 4.5625 7.375 C0.95278308 8.57095806 0.95278308 8.57095806 0 11 C-0.66 11 -1.32 11 -2 11 C-2.33 8.36 -2.66 5.72 -3 3 C-2.34 3.66 -1.68 4.32 -1 5 C-0.67 3.35 -0.34 1.7 0 0 Z " fill="#37A3BF" transform="translate(9,18)"/>
<path d="M0 0 C3.69230769 0.69230769 3.69230769 0.69230769 5 2 C4.82364548 4.69082872 4.38164079 7.32851446 4 10 C3.01 10 2.02 10 1 10 C1 9.34 1 8.68 1 8 C1.66 8 2.32 8 3 8 C3.33 6.35 3.66 4.7 4 3 C2.68 2.67 1.36 2.34 0 2 C0.33 3.65 0.66 5.3 1 7 C0.01 7.33 -0.98 7.66 -2 8 C-1.125 1.125 -1.125 1.125 0 0 Z " fill="#13C8F7" transform="translate(32,11)"/>
<path d="M0 0 C0.66 0.33 1.32 0.66 2 1 C1.67 1.99 1.34 2.98 1 4 C-0.98 4 -2.96 4 -5 4 C-5 3.34 -5 2.68 -5 2 C-2.625 0.9375 -2.625 0.9375 0 0 Z " fill="#0E1010" transform="translate(8,17)"/>
<path d="M0 0 C0.99 0.495 0.99 0.495 2 1 C2.33333333 2.33333333 2.66666667 3.66666667 3 5 C3.66 5.33 4.32 5.66 5 6 C5 6.66 5 7.32 5 8 C4.01 8.33 3.02 8.66 2 9 C1.34 6.03 0.68 3.06 0 0 Z " fill="#2DCFF9" transform="translate(3,5)"/>
<path d="M0 0 C2.9719385 1.12451727 5.33440687 2.22293791 8 4 C8 4.66 8 5.32 8 6 C5.0280615 4.87548273 2.66559313 3.77706209 0 2 C0 1.34 0 0.68 0 0 Z " fill="#C0DFE7" transform="translate(3,1)"/>
<path d="M0 0 C0.33 0.99 0.66 1.98 1 3 C-1.31 3.66 -3.62 4.32 -6 5 C-6 4.34 -6 3.68 -6 3 C-4.02 2.01 -2.04 1.02 0 0 Z " fill="#C0DFE7" transform="translate(13,28)"/>
<path d="M0 0 C0.99 0.495 0.99 0.495 2 1 C2 1.66 2 2.32 2 3 C1.34 3 0.68 3 0 3 C0 2.01 0 1.02 0 0 Z " fill="#C1DFE7" transform="translate(1,15)"/>
<path d="M0 0 C0.99 0.495 0.99 0.495 2 1 C1.67 1.99 1.34 2.98 1 4 C0.67 2.68 0.34 1.36 0 0 Z " fill="#C0DFE7" transform="translate(1,9)"/>
<path d="M0 0 C0 3 0 3 0 3 Z " fill="#C1DFE7" transform="translate(3,22)"/>
</svg>
